<?xml version="1.0" encoding="UTF-8"?>
<!-- Created with Inkscape (http://www.inkscape.org/) -->
<svg width="64" height="64" version="1.1" xmlns="http://www.w3.org/2000/svg" xmlns:cc="http://creativecommons.org/ns#" xmlns:dc="http://purl.org/dc/elements/1.1/" xmlns:rdf="http://www.w3.org/1999/02/22-rdf-syntax-ns#">
 <metadata>
  <rdf:RDF>
   <cc:Work rdf:about="">
    <dc:format>image/svg+xml</dc:format>
    <dc:type rdf:resource="http://purl.org/dc/dcmitype/StillImage"/>
   </cc:Work>
  </rdf:RDF>
 </metadata>
 <g transform="translate(0 -988.36)">
  <g transform="translate(-.31227 -1.5558)">
   <path d="m48.616 994.98c-3.3074 0.0731-6.5997 1.3637-9.1243 3.8883-3.5635 3.5634-4.6774 8.6705-3.3581 13.189l-2.2535 2.2536 3.0488 3.0488c0.16997-0.035 0.25846-0.1055 0.44185-0.1326 2.0597-0.3048 4.5299 0.493 6.3627 1.878l0.02207-0.022c0.02092 0.016 0.04519 0.051 0.0663 0.067h0.02207c0.8814 0.6519 1.8735 1.4346 2.9162 2.2756 4.0824 0.6621 8.4299-0.5648 11.577-3.7116 3.9598-3.9599 4.8974-9.7923 2.8279-14.648l-6.2744 6.2743h-6.8267l1.5686-5.9209 6.3848-6.3847c-2.2527-1.4252-4.8287-2.1115-7.4011-2.0546zm-25.694 30.289-8.0639 8.064c-1.7603 0.2027-3.4881 0.9691-4.8383 2.3197-3.1777 3.1776-3.1777 8.3105 0 11.488 3.1777 3.1778 8.3547 3.1998 11.532 0.021 1.3425-1.3425 2.1116-3.0445 2.3197-4.7941l5.3023-5.3023c-0.49531-0.6384-1.0016-1.276-1.4139-1.8337-0.0026 0 0.0026-0.019 0-0.021-0.01533-0.02-0.05105-0.045-0.0663-0.066l0.02207-0.022c-1.385-1.8328-2.1826-4.3031-1.8779-6.3627 0.02593-0.175 0.099-0.2571 0.13256-0.4199l-3.0488-3.0708zm-7.136 12.703c0.87964 0 1.7603 0.3242 2.4302 0.9942 1.3399 1.3399 1.3399 3.5426 0 4.8825s-3.5205 1.3176-4.8604-0.021c-1.3399-1.34-1.3399-3.4985 0-4.8383 0.66993-0.67 1.5506-1.0126 2.4302-1.0164z" fill="#fff" stroke="#000" stroke-linecap="round" stroke-linejoin="round" stroke-width="3.5348"/>
   <path d="m2.8244 1002.1 8.3739 10.444 7.6593 2.0522 12.598 12.598c-0.83607 1.4464-1.8164 2.849-0.0092 5.1765 1.031 1.3982 2.423 3.1504 3.9946 4.9841 1.1093 1.3306 4.5511 4.8985 5.6437 5.9918 0.02408 0.023 0.0492 0.049 0.0733 0.074 5.678 5.7951 10.508 8.3103 14.751 4.0678l0.18324-0.1831c4.2423-4.2421 1.7272-9.0726-4.0679-14.751-0.02452-0.024-0.04868-0.05-0.0733-0.073-1.0933-1.0926-4.6611-4.5346-5.9919-5.6439-1.8337-1.5715-3.5857-2.9634-4.984-3.9945-2.3274-1.8073-3.7301-0.8268-5.1765 0.01l-12.598-12.597-2.0522-7.6593-10.445-8.374-0.09163 0.0917-3.7564 3.7564-0.091614 0.0917-0.091623 0.0917-3.7564 3.7562z" color="#000000" fill="#fff" stroke-width="3.3896" style="-inkscape-stroke:none"/>
   <path d="m10.578 991.95-1.1641 1.166-3.7578 3.7559-0.091797 0.0918-0.089844 0.0918-3.752 3.75-1.1797 1.1582 0.95898 1.1953 8.7207 10.877 7.7578 2.08 11.48 11.48c-0.26136 0.5051-0.56937 0.8811-0.67773 1.6016-0.19284 1.2822 0.22869 2.7968 1.3223 4.207h2e-3c1.0559 1.4302 2.4517 3.1853 4.0312 5.0293 0.0023 0 0.0075 0.01 0.0098 0.012 2e-3 0 0.0038 0 0.0059 0.01 1.2673 1.5171 4.5959 4.9525 5.7305 6.0879l0.01367 0.014 0.01563 0.014c-0.01152-0.011 2.48e-4 0 0.02344 0.025h0.0039l0.0059 0.01c2.9213 2.9816 5.6668 5.236 8.584 6.2168 2.9167 0.9805 6.1074 0.3294 8.5742-2.1367l0.18359-0.1836c2.467-2.4669 3.1194-5.6591 2.1387-8.5762-0.98071-2.9172-3.2371-5.6626-6.2188-8.584 0.0091 0.01-0.03433-0.034-0.06055-0.061l-0.0293-0.027c-1.155-1.1533-4.5727-4.4654-6.0762-5.7187-1.8444-1.5799-3.5987-2.9771-5.0293-4.0332h-0.0039c-1.4102-1.0937-2.9247-1.5134-4.207-1.3203-0.72059 0.1085-1.0964 0.4162-1.6016 0.6777l-11.48-11.48-2.0801-7.7579zm0.25 4.5449 8.8262 7.0762 2.0273 7.5606 13.838 13.84 1.127-0.6523c0.76596-0.4432 1.3008-0.7327 1.6621-0.7871 0.36131-0.054 0.71079-0.063 1.627 0.6484l0.01563 0.014 0.01758 0.012c1.3562 1 3.0826 2.3718 4.8867 3.918l0.0078 0.01 0.0098 0.01c1.1507 0.9592 4.8308 4.4916 5.8789 5.539l0.01953 0.022 0.02148 0.02c-0.0368-0.034-0.01916-0.018 0.04492 0.045 2.8135 2.7566 4.7119 5.264 5.377 7.2422 0.66502 1.9781 0.453 3.3244-1.3223 5.0996l-0.18359 0.1816c-1.7753 1.7754-3.1196 1.9873-5.0977 1.3222-1.9755-0.6641-4.482-2.5617-7.2344-5.3691l-0.0098-0.01c-0.01875-0.02-0.04931-0.052-0.08398-0.086-1.0474-1.0481-4.5817-4.7282-5.541-5.8789l-0.0156-0.02c-1.5462-1.8041-2.9161-3.5307-3.916-4.8867l-0.01367-0.018-0.01172-0.016c-0.71141-0.9163-0.70475-1.2655-0.65039-1.627 0.05436-0.3614 0.34423-0.8959 0.78711-1.6621l0.65234-1.1269-13.84-13.838-7.5605-2.0274-7.0762-8.8242 2.957-2.957z" color="#000000" style="-inkscape-stroke:none"/>
  </g>
  <path d="m30.915 1025.6 3.8951-3.8951" fill="none" stroke="#000" stroke-width="3"/>
 </g>
</svg>
